Exact Audio Copy V0.99 prebeta 3 from 28. July 2007

Отчёт EAC об извлечении, выполненном 9. февраля 2010, 21:01

Ten And Tracer / Quotidiennes EP

Дисковод: Optiarc DVD RW AD-7200S   Adapter: 3  ID: 1

Режим чтения                 : Достоверность
Использование точного потока : Да
Отключение кэша аудио        : Нет
Использование указателей C2  : Нет

Комбинированное смещение чтения/записи            : 0
Способность читать области Lead-in и Lead-out     : Нет
Заполнение пропущенных сэмплов тишиной            : Да
Удаление блоков с тишиной в начале и конце        : Нет
При вычислениях CRC использовались нулевые сэмплы : Нет
Интерфейс                                         : Встроенный Win32-интерфейс для Win NT/2000
Обработка зазоров                                 : Добавлено к предыдущему треку

Выходной формат          : Пользовательский кодировщик
Выбранный битрейт        : 1024 kBit/s
Качество                 : Высокий
Добавление ID3-тэга      : Нет
Утилита сжатия           : E:\BackUP\Новая папка (b)\Exact Audio Copy\FLAC\FLAC.EXE
Дополнительные параметры : -6 -V -T "ARTIST=%a" -T "TITLE=%t" -T "ALBUM=%g" -T "DATE=%y" -T "TRACKNUMBER=%n" -T "GENRE=%m" -T "COMMENT=%e" %s -o %d


TOC извлечённого CD

     Трек |   Старт  | Длительность | Начальный сектор | Конечный сектор 
    ---------------------------------------------------------------------
       1  |  0:00.00 |    4:01.73   |           0      |      18147      
       2  |  4:01.73 |    3:39.40   |       18148      |      34612      
       3  |  7:41.38 |    2:25.57   |       34613      |      45544      
       4  | 10:07.20 |    6:56.11   |       45545      |      76755      
       5  | 17:03.31 |    4:09.21   |       76756      |      95451      


Трек  1

     Имя файла D:\MUSIC_AND_VIDEO\trnts\01. Ten And Tracer - liver jerker.wav

     Длина предзазора  0:00:02.00

     Пиковый уровень 100.0 %
     Качество трека 100.0 %
     CRC копии D8D8A420
     Копирование... OK

Трек  2

     Имя файла D:\MUSIC_AND_VIDEO\trnts\02. Ten And Tracer - mother liquor.wav

     Пиковый уровень 100.0 %
     Качество трека 100.0 %
     CRC копии 35BD932F
     Копирование... OK

Трек  3

     Имя файла D:\MUSIC_AND_VIDEO\trnts\03. Ten And Tracer - nohuref.wav

     Пиковый уровень 100.0 %
     Качество трека 100.0 %
     CRC копии 7E07E202
     Копирование... OK

Трек  4

     Имя файла D:\MUSIC_AND_VIDEO\trnts\04. Ten And Tracer - wimiref.wav

     Пиковый уровень 100.0 %
     Качество трека 100.0 %
     CRC копии 8CFF000D
     Копирование... OK

Трек  5

     Имя файла D:\MUSIC_AND_VIDEO\trnts\05. Ten And Tracer - gosmaref.wav

     Пиковый уровень 100.0 %
     Качество трека 100.0 %
     CRC копии C12EADD5
     Копирование... OK

Ошибок не произошло

Конец отчёта
